<?xml version="1.0" standalone="no"?>
<!DOCTYPE svg PUBLIC "-//W3C//DTD SVG 20010904//EN"
 "http://www.w3.org/TR/2001/REC-SVG-20010904/DTD/svg10.dtd">
<svg version="1.0" xmlns="http://www.w3.org/2000/svg"
 width="299.000000pt" height="342.000000pt" viewBox="0 0 299.000000 342.000000"
 preserveAspectRatio="xMidYMid meet">

<g transform="translate(0.000000,342.000000) scale(0.100000,-0.100000)"
fill="#000000" stroke="none">
<path d="M941 3294 c0 -11 3 -14 6 -6 3 7 2 16 -1 19 -3 4 -6 -2 -5 -13z"/>
<path d="M975 3300 c-3 -5 -2 -18 4 -27 7 -14 9 -12 8 10 -2 30 -3 31 -12 17z"/>
<path d="M1051 3274 c0 -11 3 -14 6 -6 3 7 2 16 -1 19 -3 4 -6 -2 -5 -13z"/>
<path d="M949 3246 c-8 -17 -8 -29 0 -42 11 -17 11 -16 5 5 -4 15 -2 21 4 17
5 -3 13 1 16 10 4 10 2 13 -6 8 -8 -5 -9 -2 -5 9 10 26 -2 20 -14 -7z"/>
<path d="M1032 3229 c-1 -24 -10 -43 -27 -59 -14 -13 -25 -33 -25 -44 0 -16 2
-18 9 -7 7 11 9 11 14 0 4 -10 6 -10 6 2 1 9 12 20 26 23 23 6 52 42 42 53 -3
2 -8 -5 -12 -16 -6 -20 -41 -38 -52 -27 -4 3 2 14 11 25 12 13 16 30 13 53
l-4 33 -1 -36z"/>
<path d="M930 3192 c0 -11 27 -42 37 -42 3 0 -2 10 -13 23 -10 12 -20 24 -21
26 -2 2 -3 -1 -3 -7z"/>
<path d="M800 3166 c25 -9 38 -21 46 -44 5 -18 15 -37 22 -42 9 -7 9 -7 2 2
-5 7 -10 22 -10 34 0 27 -44 64 -74 63 -15 0 -11 -4 14 -13z"/>
<path d="M532 3133 c-16 -6 -38 -49 -46 -93 -4 -25 -3 -31 4 -20 5 8 10 25 10
38 0 13 13 37 29 53 29 28 29 33 3 22z"/>
<path d="M980 3080 c0 -5 5 -10 11 -10 5 0 7 5 4 10 -3 6 -8 10 -11 10 -2 0
-4 -4 -4 -10z"/>
<path d="M641 3054 c0 -11 10 -31 24 -44 35 -33 27 -79 -13 -80 -7 0 -11 4 -8
9 3 4 -4 17 -17 27 -20 18 -21 18 -7 0 21 -27 22 -49 2 -42 -13 5 -12 2 2 -9
19 -15 19 -15 -2 -15 -11 0 -51 14 -87 32 -52 24 -69 28 -78 19 -9 -10 -9 -11
3 -6 9 3 44 -8 78 -25 34 -16 73 -30 86 -30 30 0 39 -28 17 -54 -16 -19 -16
-19 11 0 31 22 35 39 12 48 -23 9 -12 29 19 37 29 8 35 -2 14 -19 -7 -6 -12
-21 -11 -34 2 -28 22 -79 24 -58 0 8 4 21 9 29 8 13 12 13 28 1 15 -12 16 -12
6 0 -17 18 -16 33 0 27 8 -3 20 -1 28 4 10 6 8 9 -11 9 -18 0 -21 3 -11 9 10
6 10 10 1 16 -7 4 -13 -1 -17 -13 -3 -11 -11 -23 -19 -26 -10 -4 -11 0 -4 18
5 13 6 27 2 31 -3 3 2 3 12 -1 12 -4 17 -4 13 2 -3 6 3 10 13 11 11 1 19 -3
17 -9 -1 -6 5 -13 13 -15 12 -4 13 -3 1 5 -11 8 -8 13 14 24 23 12 25 16 11
21 -9 4 -15 3 -12 -2 3 -5 -1 -11 -9 -15 -17 -6 -30 10 -15 19 5 3 10 13 10
22 0 11 -6 8 -21 -11 -24 -30 -59 -35 -59 -8 0 10 -13 31 -29 47 -17 15 -32
37 -34 49 -4 21 -4 21 -6 0z"/>
<path d="M799 3013 c-12 -16 -12 -17 1 -7 8 7 24 14 35 17 19 4 19 5 -1 6 -12
0 -28 -7 -35 -16z"/>
<path d="M950 2985 c-13 -24 -29 -41 -34 -38 -6 4 -3 -3 7 -14 9 -11 15 -22
13 -24 -2 -2 2 -10 10 -17 17 -16 19 1 3 26 -9 14 -7 27 11 61 29 57 21 62
-10 6z"/>
<path d="M1093 2987 c16 -7 35 -23 42 -37 8 -14 14 -19 15 -12 0 19 -46 62
-67 62 -12 -1 -9 -5 10 -13z"/>
<path d="M519 2961 c13 -12 28 -21 34 -21 12 0 11 0 -28 24 l-30 17 24 -20z"/>
<path d="M858 2953 c6 -2 18 -2 25 0 6 3 1 5 -13 5 -14 0 -19 -2 -12 -5z"/>
<path d="M982 2938 c-16 -16 -15 -38 4 -68 10 -17 13 -18 9 -5 -16 46 -17 56
-5 70 15 18 9 20 -8 3z"/>
<path d="M578 2933 c7 -3 16 -2 19 1 4 3 -2 6 -13 5 -11 0 -14 -3 -6 -6z"/>
<path d="M660 2900 c0 -5 7 -7 15 -4 8 4 15 8 15 10 0 2 -7 4 -15 4 -8 0 -15
-4 -15 -10z"/>
<path d="M1175 2867 c3 -15 1 -36 -5 -47 -6 -12 -7 -20 -1 -20 15 0 24 57 11
77 -10 15 -10 14 -5 -10z"/>
<path d="M1242 2845 c0 -16 2 -22 5 -12 2 9 2 23 0 30 -3 6 -5 -1 -5 -18z"/>
<path d="M425 2830 c4 -14 9 -35 12 -47 3 -13 9 -23 14 -23 5 0 9 -10 10 -22
0 -22 1 -22 8 -3 5 11 5 22 2 25 -4 3 -17 25 -30 50 -13 25 -20 34 -16 20z"/>
<path d="M340 2833 c-6 -31 -6 -39 1 -48 10 -15 10 -105 -1 -105 -9 0 -30 32
-30 46 0 3 8 0 18 -7 14 -11 13 -10 -2 9 -25 29 -30 28 -22 -8 7 -39 0 -38
-17 3 -8 17 -22 39 -33 47 -18 14 -18 14 -5 -2 7 -10 9 -18 4 -18 -16 0 -53
31 -48 40 3 5 1 11 -4 14 -5 4 -12 2 -15 -2 -7 -12 31 -51 61 -63 14 -5 23
-12 19 -16 -3 -3 3 -12 14 -20 27 -19 25 -31 -5 -29 -14 0 -25 4 -25 7 0 4 -8
10 -17 13 -10 3 -1 -10 20 -30 41 -38 85 -44 79 -11 -2 9 3 17 11 17 22 0 26
42 12 112 -7 35 -14 57 -15 51z m-15 -152 c3 -5 2 -12 -3 -15 -5 -3 -9 1 -9 9
0 17 3 19 12 6z m-25 -26 c16 -9 19 -14 9 -15 -8 0 -24 7 -35 15 -24 18 -7 19
26 0z"/>
<path d="M724 2804 c3 -9 6 -21 7 -27 0 -7 4 -3 8 8 9 22 5 35 -11 35 -5 0 -7
-7 -4 -16z"/>
<path d="M919 2796 c10 -11 8 -16 -6 -25 -16 -9 -16 -10 7 -19 14 -5 27 -7 30
-3 3 3 10 10 15 14 6 5 -4 5 -20 2 -25 -6 -28 -5 -17 6 16 17 15 26 -4 33 -14
5 -15 4 -5 -8z"/>
<path d="M990 2794 c0 -12 7 -25 16 -28 22 -9 7 -26 -24 -27 -15 0 -21 -3 -14
-6 7 -3 17 -16 23 -30 5 -13 13 -22 18 -19 12 8 28 -14 34 -44 2 -14 3 -8 2
13 l-3 39 24 -23 c13 -12 24 -20 24 -18 0 3 -14 18 -32 35 -17 16 -27 22 -23
14 5 -8 4 -12 0 -7 -11 9 -16 39 -6 33 4 -3 13 -1 21 5 12 7 11 9 -6 9 -12 0
-21 7 -21 15 0 9 6 14 12 11 6 -2 12 2 12 9 0 8 -7 11 -15 7 -10 -3 -13 -1 -8
6 3 6 2 13 -4 17 -5 3 -10 0 -10 -7 0 -9 -3 -9 -10 2 -8 12 -10 11 -10 -6z"/>
<path d="M393 2750 c0 -25 2 -35 4 -22 2 12 2 32 0 45 -2 12 -4 2 -4 -23z"/>
<path d="M671 2774 c0 -11 3 -14 6 -6 3 7 2 16 -1 19 -3 4 -6 -2 -5 -13z"/>
<path d="M765 2770 c-3 -6 10 -17 29 -26 32 -16 38 -16 66 -2 18 9 28 18 22
22 -5 3 -15 -1 -22 -9 -17 -21 -46 -19 -70 5 -10 10 -22 15 -25 10z"/>
<path d="M180 2763 c0 -13 38 -43 54 -43 6 0 -1 8 -14 17 -14 9 -28 22 -32 27
-5 8 -8 7 -8 -1z"/>
<path d="M1117 2760 c-50 -9 -56 -18 -13 -18 19 0 40 6 47 14 6 8 10 13 8 13
-2 -1 -21 -5 -42 -9z"/>
<path d="M1194 2732 c-21 -27 -22 -52 -2 -52 7 0 6 5 -1 14 -8 10 -9 16 -1 21
5 3 10 3 10 -1 0 -4 7 1 15 12 10 13 14 15 15 5 0 -8 2 -12 5 -9 7 6 -5 38
-14 37 -3 0 -15 -12 -27 -27z"/>
<path d="M637 2719 c-10 -6 -38 -9 -62 -7 -24 1 -41 0 -38 -4 2 -5 26 -8 52
-8 42 0 49 -3 60 -26 9 -20 9 -30 -1 -43 -10 -13 -10 -14 2 -3 8 6 21 12 31
12 12 0 15 6 11 27 -4 23 -6 24 -12 9 -5 -16 -7 -16 -19 -2 -7 9 -11 25 -8 36
3 11 4 20 4 20 -1 0 -10 -5 -20 -11z"/>
<path d="M820 2698 c0 -17 -66 -62 -79 -54 -11 7 -53 -33 -46 -45 3 -4 30 -8
60 -8 64 0 81 -7 65 -26 -9 -11 -7 -12 9 -8 19 5 19 6 4 27 -13 17 -27 22 -67
21 -28 0 -51 5 -51 10 0 6 7 10 15 11 23 0 64 20 79 38 7 9 17 14 21 11 5 -3
6 4 3 15 -6 22 -13 26 -13 8z"/>
<path d="M1210 2679 c-13 -15 -28 -25 -32 -23 -5 3 -8 0 -8 -6 0 -7 -6 -10
-12 -7 -8 3 -14 -5 -14 -19 -2 -21 4 -19 49 25 28 28 49 52 47 54 -3 2 -16 -9
-30 -24z"/>
<path d="M379 2695 c-4 -3 -4 -18 0 -33 10 -39 52 -42 75 -7 10 15 16 29 13
31 -2 2 -10 -7 -17 -21 -7 -14 -20 -25 -27 -25 -8 0 -11 4 -8 10 3 5 0 7 -9 4
-10 -4 -15 2 -18 21 -2 15 -6 24 -9 20z"/>
<path d="M426 2683 c-6 -14 -5 -15 5 -6 7 7 10 15 7 18 -3 3 -9 -2 -12 -12z"/>
<path d="M850 2689 c0 -5 5 -7 10 -4 6 3 10 8 10 11 0 2 -4 4 -10 4 -5 0 -10
-5 -10 -11z"/>
<path d="M549 2633 c-45 -48 -107 -122 -73 -88 37 37 136 145 133 145 -3 0
-29 -26 -60 -57z"/>
<path d="M970 2620 c6 -11 13 -20 16 -20 2 0 0 9 -6 20 -6 11 -13 20 -16 20
-2 0 0 -9 6 -20z"/>
<path d="M375 2600 c3 -5 8 -10 11 -10 2 0 4 5 4 10 0 6 -5 10 -11 10 -5 0 -7
-4 -4 -10z"/>
<path d="M624 2583 c-4 -12 -10 -23 -15 -23 -5 0 -9 -4 -9 -8 0 -12 39 -12 46
0 5 7 2 8 -6 3 -9 -6 -11 -4 -6 4 5 7 18 16 30 21 17 7 18 9 3 9 -10 1 -16 5
-13 9 3 5 -2 9 -10 9 -8 0 -17 -11 -20 -24z"/>
<path d="M851 2601 c-9 -6 -5 -13 15 -25 14 -10 24 -13 20 -8 -3 6 0 12 6 14
8 3 6 9 -8 16 -11 6 -26 7 -33 3z"/>
<path d="M915 2580 c3 -5 8 -10 11 -10 2 0 4 5 4 10 0 6 -5 10 -11 10 -5 0 -7
-4 -4 -10z"/>
<path d="M1096 2574 c-15 -9 -37 -13 -49 -10 -14 3 -17 2 -9 -6 13 -13 49 -5
77 16 26 20 18 19 -19 0z"/>
<path d="M400 2527 l5 -52 3 44 c2 24 0 47 -5 52 -4 4 -6 -15 -3 -44z"/>
<path d="M730 2550 c0 -13 11 -13 30 0 12 8 11 10 -7 10 -13 0 -23 -4 -23 -10z"/>
<path d="M484 2515 c-28 -38 -43 -41 -24 -6 6 12 8 21 6 21 -12 0 -55 -99 -46
-105 6 -3 10 3 10 14 0 25 20 38 31 20 7 -11 9 -10 9 4 0 10 12 34 26 53 15
19 24 34 21 34 -3 0 -18 -16 -33 -35z"/>
<path d="M556 2536 c4 -11 0 -13 -17 -9 -14 4 -20 2 -16 -4 4 -6 0 -14 -9 -17
-9 -4 -14 -13 -10 -21 3 -8 2 -15 -3 -15 -16 0 -30 -47 -18 -59 9 -9 8 -11 -5
-6 -10 4 -18 15 -19 24 0 11 -2 12 -6 3 -7 -17 15 -69 33 -76 7 -3 16 0 20 6
5 7 2 8 -6 3 -9 -5 -11 -4 -6 3 4 7 19 13 34 13 18 1 21 3 9 6 -15 4 -16 7 -5
21 9 12 6 12 -10 -2 -30 -26 -28 -11 3 26 14 16 25 35 25 41 0 6 -13 -4 -30
-23 -19 -23 -29 -30 -30 -19 0 8 11 26 25 39 13 12 23 28 22 34 -1 6 6 10 16
8 18 -3 24 22 7 33 -5 3 -7 0 -4 -9z"/>
<path d="M775 2526 c14 -10 43 -15 93 -16 68 0 76 -2 103 -29 19 -20 29 -40
29 -60 0 -33 16 -42 23 -13 3 13 6 10 11 -10 5 -16 12 -28 17 -28 5 0 9 -8 9
-17 0 -10 100 -262 222 -560 217 -530 223 -543 249 -543 33 0 4 -74 255 644
l189 539 3 -529 c2 -359 -1 -541 -8 -566 -12 -41 -49 -68 -95 -68 -14 0 -25
-4 -25 -10 0 -6 90 -10 250 -10 138 0 250 4 250 9 0 5 -25 11 -56 13 -43 4
-61 11 -82 32 l-27 26 -3 546 c-2 479 -1 549 13 578 19 39 51 56 105 56 21 0
42 5 45 10 4 7 -53 10 -175 8 l-182 -3 -180 -510 c-98 -280 -183 -513 -186
-517 -4 -4 -104 226 -221 512 l-214 520 -161 1 c-89 0 -186 3 -216 5 -51 5
-54 4 -35 -10z"/>
<path d="M622 2514 c10 -10 20 -16 22 -13 3 3 -5 11 -17 18 -21 13 -21 12 -5
-5z"/>
<path d="M578 2421 c12 -7 62 -4 62 5 0 2 -17 4 -37 4 -24 0 -33 -3 -25 -9z"/>
<path d="M740 2410 c-9 -6 -10 -10 -3 -10 6 0 15 5 18 10 8 12 4 12 -15 0z"/>
<path d="M583 2387 c0 -7 -3 -23 -7 -35 -7 -22 -6 -23 16 -12 17 10 20 10 12
1 -6 -7 -20 -14 -30 -15 -10 -2 -20 -8 -22 -15 -3 -9 5 -8 27 4 34 17 51 13
51 -12 0 -9 3 -14 6 -10 8 8 -28 96 -42 101 -6 2 -11 -1 -11 -7z"/>
<path d="M668 2383 c7 -3 16 -2 19 1 4 3 -2 6 -13 5 -11 0 -14 -3 -6 -6z"/>
<path d="M545 2350 c3 -5 8 -10 11 -10 2 0 4 5 4 10 0 6 -5 10 -11 10 -5 0 -7
-4 -4 -10z"/>
<path d="M580 2240 c0 -5 5 -10 10 -10 6 0 10 5 10 10 0 6 -4 10 -10 10 -5 0
-10 -4 -10 -10z"/>
<path d="M356 2221 c-4 -5 -2 -12 3 -15 5 -4 12 -2 15 3 4 5 2 12 -3 15 -5 4
-12 2 -15 -3z"/>
<path d="M523 2154 c43 -34 66 -68 53 -81 -3 -3 -19 0 -37 6 -33 12 -53 6 -30
-8 11 -7 11 -10 0 -15 -8 -3 1 -3 20 0 25 5 32 3 26 -6 -5 -8 -1 -11 11 -8 25
4 30 52 10 83 -9 13 -16 32 -16 42 0 14 -2 15 -9 4 -7 -11 -13 -11 -32 3 -45
31 -42 16 4 -20z"/>
<path d="M788 2155 c-48 -18 -93 -37 -100 -43 -7 -6 -25 -10 -40 -9 -24 2 -28
6 -28 32 0 25 -2 27 -14 15 -8 -10 -11 -30 -9 -57 4 -34 9 -43 24 -43 10 0 19
-4 19 -8 0 -5 21 11 46 35 28 25 66 49 93 57 84 26 149 58 109 55 -7 -1 -52
-16 -100 -34z"/>
<path d="M585 2169 c-4 -6 -5 -12 -2 -15 2 -3 7 2 10 11 7 17 1 20 -8 4z"/>
<path d="M390 2163 c0 -5 6 -15 13 -22 10 -10 8 -11 -8 -5 -11 4 -26 12 -33
17 -9 7 -17 6 -24 -1 -9 -9 -8 -12 6 -12 10 0 32 -7 49 -16 57 -30 67 -34 77
-34 6 0 9 4 5 9 -10 17 -85 73 -85 64z"/>
<path d="M655 2120 c-3 -5 -2 -10 4 -10 5 0 13 5 16 10 3 6 2 10 -4 10 -5 0
-13 -4 -16 -10z"/>
<path d="M750 2111 c-20 -6 -22 -8 -8 -13 9 -4 22 -1 28 8 7 8 11 14 9 13 -2
-1 -15 -4 -29 -8z"/>
<path d="M790 2045 c7 -8 18 -32 26 -52 8 -23 13 -30 14 -18 0 21 -35 85 -46
85 -4 0 -1 -7 6 -15z"/>
<path d="M615 1960 c-3 -5 -1 -10 4 -10 6 0 11 5 11 10 0 6 -2 10 -4 10 -3 0
-8 -4 -11 -10z"/>
<path d="M830 1939 c0 -6 -7 -26 -15 -44 -15 -29 -19 -32 -55 -29 -27 2 -45
-2 -56 -14 -16 -15 -18 -15 -32 6 -8 12 -17 22 -21 22 -11 0 -11 -39 0 -45 5
-4 7 -11 4 -16 -4 -5 -1 -9 6 -9 6 0 9 -8 6 -20 -3 -11 -1 -18 4 -14 20 12 7
-18 -23 -53 -32 -38 -32 -38 -3 -13 16 14 35 32 42 40 11 13 12 13 13 -2 0
-20 20 -25 20 -5 0 6 5 4 11 -6 10 -17 12 -17 40 0 16 9 29 23 29 30 0 7 8 13
17 13 9 0 13 3 10 7 -4 3 1 12 11 19 16 12 15 13 -5 14 -31 0 -29 16 5 29 15
6 18 9 7 7 -11 -2 -29 -7 -40 -12 -19 -7 -19 -7 -3 12 10 11 23 34 29 52 6 17
18 33 27 35 12 3 10 5 -5 6 -13 0 -23 -4 -23 -10z m-114 -104 c-5 -15 4 -19
34 -16 12 1 11 -1 -3 -12 -10 -9 -15 -22 -12 -33 3 -11 0 -8 -7 6 -7 14 -16
28 -21 31 -8 6 1 39 10 39 3 0 3 -7 -1 -15z m-3 -59 c4 -10 1 -13 -8 -9 -8 3
-12 9 -9 14 7 12 11 11 17 -5z m57 -21 c-7 -9 -15 -13 -17 -11 -7 7 7 26 19
26 6 0 6 -6 -2 -15z"/>
<path d="M475 1839 c3 -8 23 -25 45 -39 33 -20 37 -27 27 -40 -11 -13 -10 -13
8 0 11 8 22 15 23 16 2 2 -11 10 -30 19 -18 10 -43 27 -56 38 -15 14 -21 16
-17 6z"/>
<path d="M930 1760 c-13 -8 -13 -10 2 -10 9 0 20 5 23 10 8 13 -5 13 -25 0z"/>
<path d="M883 1739 c9 -13 17 -31 17 -41 0 -10 5 -15 13 -12 20 7 48 -30 49
-65 1 -18 5 -34 10 -37 5 -3 8 -2 7 3 -1 4 1 20 5 35 6 19 12 25 24 20 15 -5
15 -4 3 11 -7 9 -21 17 -31 17 -10 0 -33 17 -53 39 -42 46 -67 64 -44 30z"/>
<path d="M526 1725 c-9 -26 -7 -32 5 -12 6 10 9 21 6 23 -2 3 -7 -2 -11 -11z"/>
<path d="M1037 1589 c7 -7 15 -10 18 -7 3 3 -2 9 -12 12 -14 6 -15 5 -6 -5z"/>
<path d="M916 1551 c-4 -5 1 -8 9 -7 21 3 31 16 12 16 -9 0 -18 -4 -21 -9z"/>
<path d="M968 1538 c5 -18 7 -19 10 -6 2 9 15 19 30 21 22 3 20 4 -10 6 -33 1
-36 -1 -30 -21z"/>
<path d="M1047 1526 c-4 -10 0 -12 14 -9 10 3 16 9 13 14 -8 13 -21 11 -27 -5z"/>
<path d="M900 1522 c0 -5 9 -12 19 -15 13 -3 21 -16 24 -38 l4 -34 -1 34 c-1
23 -8 38 -23 49 -13 8 -23 10 -23 4z"/>
<path d="M1095 1510 c8 -14 -4 -52 -15 -45 -5 3 -11 1 -14 -4 -4 -5 1 -8 10
-7 8 1 19 9 24 16 7 12 10 11 16 -3 7 -20 -21 -57 -43 -57 -7 0 -13 -4 -13 -9
0 -4 11 -6 25 -3 14 2 23 7 20 10 -3 3 2 13 11 23 15 17 15 21 0 54 -9 19 -19
35 -22 35 -3 0 -2 -5 1 -10z"/>
<path d="M925 1400 c-5 -16 -10 -19 -15 -10 -5 8 -9 7 -13 -5 -4 -9 -3 -13 3
-10 6 3 10 -1 10 -10 0 -9 -4 -14 -9 -10 -6 3 -8 -3 -6 -14 3 -15 0 -18 -12
-14 -11 4 -14 2 -9 -5 8 -13 56 -12 56 0 0 4 -4 8 -9 8 -4 0 -6 11 -3 25 2 14
8 22 13 19 13 -8 23 26 11 38 -7 7 -12 3 -17 -12z"/>
<path d="M1026 1394 c-5 -14 -4 -15 9 -4 17 14 19 20 6 20 -5 0 -12 -7 -15
-16z"/>
<path d="M744 1382 c-24 -19 -26 -74 -3 -80 8 -2 10 0 4 5 -24 19 -7 69 29 83
12 5 15 9 6 9 -8 0 -24 -7 -36 -17z"/>
<path d="M836 1385 c-3 -8 -1 -15 4 -15 6 0 10 7 10 15 0 8 -2 15 -4 15 -2 0
-6 -7 -10 -15z"/>
<path d="M960 1379 c0 -11 -5 -29 -10 -39 -7 -13 -7 -21 0 -25 5 -3 10 1 10
10 0 9 7 23 15 31 8 8 12 21 9 29 -9 22 -24 18 -24 -6z"/>
<path d="M1036 1358 c-9 -29 -16 -81 -10 -75 8 7 23 87 17 87 -2 0 -5 -6 -7
-12z"/>
<path d="M840 1351 c0 -6 4 -13 10 -16 6 -3 7 1 4 9 -7 18 -14 21 -14 7z"/>
<path d="M791 1276 c13 -13 81 -56 89 -56 5 0 12 5 16 11 4 8 -1 9 -17 4 -22
-7 -23 -7 -9 10 14 16 13 17 -6 11 -12 -3 -28 0 -40 9 -17 13 -44 22 -33 11z"/>
<path d="M998 1201 c20 -35 22 -35 15 2 -3 15 -11 27 -19 27 -10 0 -9 -7 4
-29z"/>
<path d="M70 1050 c0 -5 5 -10 10 -10 6 0 10 -40 10 -100 0 -84 -3 -101 -18
-109 -13 -8 -7 -10 28 -10 35 0 41 2 28 10 -15 8 -18 24 -17 97 0 98 -4 101
60 -43 l31 -70 48 100 48 100 1 -87 c1 -73 -2 -89 -16 -97 -14 -8 -7 -10 30
-11 44 0 47 1 33 16 -23 22 -23 192 -1 200 27 11 16 25 -16 22 -36 -3 -36 -4
-83 -108 -32 -71 -34 -74 -44 -50 -5 14 -24 56 -40 93 -28 61 -33 67 -61 67
-17 0 -31 -4 -31 -10z"/>
<path d="M943 1044 c-103 -52 -68 -224 46 -224 58 0 111 25 111 53 0 13 5 28
12 35 9 9 1 12 -37 12 -43 0 -47 -2 -31 -13 29 -21 17 -60 -22 -71 -63 -18
-113 48 -98 129 14 75 93 103 135 48 l20 -28 1 30 c0 22 -5 31 -17 33 -10 1
-34 4 -53 7 -22 3 -47 -1 -67 -11z"/>
<path d="M1270 1051 c0 -5 7 -11 15 -15 12 -4 15 -25 15 -95 0 -82 -2 -91 -22
-105 -22 -15 -21 -16 27 -16 42 0 46 2 31 13 -14 10 -16 26 -14 90 l3 78 68
-91 c37 -49 72 -90 77 -90 6 0 10 43 10 105 0 85 3 107 15 111 27 11 16 24
-20 24 -33 0 -48 -14 -25 -22 7 -2 10 -32 8 -78 l-3 -74 -65 87 c-54 73 -69
87 -92 87 -15 0 -28 -4 -28 -9z"/>
<path d="M1734 1041 c-43 -26 -64 -59 -64 -99 0 -71 52 -122 125 -122 133 0
173 164 55 225 -39 20 -79 19 -116 -4z m101 -7 c47 -18 60 -125 21 -170 -53
-63 -146 -20 -146 67 0 43 21 94 42 102 19 8 64 8 83 1z"/>
<path d="M2080 1050 c0 -5 7 -10 15 -10 12 0 15 -18 15 -100 0 -84 -3 -101
-17 -109 -13 -8 9 -10 82 -8 l100 2 3 30 3 30 -18 -22 c-22 -27 -73 -39 -102
-24 -19 11 -21 20 -21 102 0 70 3 91 15 95 30 12 14 24 -30 24 -25 0 -45 -4
-45 -10z"/>
<path d="M2430 1051 c0 -5 6 -11 13 -13 8 -3 12 -32 12 -97 0 -80 -3 -94 -19
-107 -18 -13 -15 -14 35 -14 41 1 50 3 37 11 -15 8 -18 25 -18 109 0 60 4 100
10 100 6 0 10 5 10 10 0 6 -18 10 -40 10 -22 0 -40 -4 -40 -9z"/>
<path d="M2761 1039 c-48 -126 -75 -187 -88 -201 -15 -17 -14 -18 23 -17 21 0
33 3 27 6 -16 6 -17 37 -3 64 8 13 21 19 45 19 29 0 37 -5 51 -32 15 -30 15
-32 -2 -45 -16 -11 -11 -13 35 -13 52 0 53 0 33 18 -12 9 -38 60 -58 112 -44
112 -50 121 -63 89z m24 -76 c8 -20 13 -38 11 -40 -2 -3 -18 -3 -34 -1 l-30 3
15 38 c8 20 17 37 19 37 2 0 11 -16 19 -37z"/>
<path d="M574 954 c-22 -54 -48 -106 -58 -116 -19 -18 -19 -18 24 -18 39 0 42
1 25 14 -17 12 -17 17 -5 45 12 29 16 32 53 29 35 -3 42 -7 50 -32 8 -24 6
-32 -9 -43 -16 -11 -11 -13 36 -13 l53 0 -19 21 c-10 12 -35 62 -55 112 -20
50 -41 93 -47 95 -5 1 -27 -41 -48 -94z m66 -21 c0 -8 -12 -13 -30 -13 -35 0
-35 -1 -14 48 l16 37 14 -30 c7 -16 13 -36 14 -42z"/>
<path d="M300 630 c0 -5 7 -10 15 -10 12 0 15 -18 15 -100 0 -84 -3 -101 -17
-109 -14 -8 -5 -10 37 -10 43 0 50 2 33 9 -18 7 -23 17 -23 43 0 57 22 63 58
17 35 -42 39 -56 20 -63 -7 -3 10 -6 37 -6 l51 -1 -58 61 c-32 33 -58 65 -58
70 0 16 64 89 78 89 6 0 12 5 12 10 0 6 -16 10 -36 10 -29 0 -34 -3 -30 -18 4
-11 -8 -33 -34 -62 l-39 -45 -1 48 c0 33 4 49 15 53 30 12 14 24 -30 24 -25 0
-45 -4 -45 -10z"/>
<path d="M660 631 c0 -5 7 -11 15 -15 12 -4 15 -25 15 -100 0 -80 -3 -97 -17
-105 -14 -8 -5 -10 37 -10 30 0 48 3 40 6 -26 10 -30 25 -30 116 0 69 3 89 15
93 30 12 14 24 -30 24 -25 0 -45 -4 -45 -9z"/>
<path d="M900 608 c0 -32 0 -32 16 -10 11 15 25 22 50 22 l34 0 0 -94 c0 -87
-2 -96 -22 -110 -21 -15 -20 -16 37 -16 57 0 58 1 37 16 -20 14 -22 23 -22
110 l0 94 34 0 c25 0 39 -7 50 -22 16 -22 16 -22 16 10 l0 32 -115 0 -115 0 0
-32z"/>
<path d="M1343 624 c-70 -35 -83 -144 -23 -196 33 -30 93 -38 132 -17 16 9 23
8 29 -2 6 -9 9 2 9 31 -1 42 -2 44 -15 26 -8 -11 -15 -23 -15 -26 0 -4 -12
-12 -26 -19 -48 -22 -99 9 -110 66 -8 44 11 110 36 123 35 19 77 12 99 -16
l21 -27 0 30 c0 20 -5 29 -17 31 -10 1 -34 4 -53 7 -22 3 -47 -1 -67 -11z"/>
<path d="M1650 631 c0 -5 7 -11 15 -15 12 -4 15 -25 15 -95 0 -82 -2 -91 -22
-105 -21 -15 -20 -16 32 -16 42 1 51 3 38 11 -13 7 -18 23 -18 54 l0 45 60 0
60 0 0 -45 c0 -31 -5 -47 -17 -54 -14 -8 -5 -10 37 -10 42 0 51 2 38 10 -15 8
-18 25 -18 109 0 60 4 100 10 100 6 0 10 5 10 10 0 6 -18 10 -40 10 -22 0 -40
-4 -40 -10 0 -5 5 -10 10 -10 6 0 10 -20 10 -45 l0 -45 -60 0 -60 0 0 45 c0
33 4 45 15 45 8 0 15 5 15 10 0 6 -20 10 -45 10 -25 0 -45 -4 -45 -9z"/>
<path d="M2060 631 c0 -5 6 -11 12 -13 9 -3 14 -33 16 -90 4 -77 2 -88 -17
-107 l-21 -21 94 0 94 0 4 30 c5 33 -7 42 -15 11 -5 -21 -55 -36 -87 -26 -16
5 -20 15 -20 56 0 56 15 64 50 27 l20 -22 0 42 c0 42 -13 56 -24 27 -3 -8 -15
-15 -26 -15 -17 0 -20 6 -20 45 l0 45 45 0 c38 0 47 -4 55 -22 8 -21 9 -20 9
10 l1 32 -85 0 c-47 0 -85 -4 -85 -9z"/>
<path d="M2400 631 c0 -5 7 -11 15 -15 12 -4 15 -25 15 -100 0 -80 -3 -97 -17
-105 -14 -8 -9 -10 26 -11 39 0 42 2 27 13 -14 10 -16 26 -14 92 l3 79 69 -92
c37 -51 72 -92 77 -92 5 0 9 45 9 99 0 75 4 103 15 115 22 22 19 26 -20 26
-19 0 -35 -4 -35 -10 0 -5 4 -10 10 -10 13 0 22 -56 18 -115 l-3 -49 -69 92
c-58 79 -72 92 -97 92 -16 0 -29 -4 -29 -9z"/>
<path d="M520 150 c-11 -11 -20 -26 -20 -33 0 -18 32 -47 53 -47 15 0 47 35
47 52 0 11 -38 48 -50 48 -5 0 -19 -9 -30 -20z m54 -6 c19 -18 19 -20 6 -45
-14 -25 -46 -25 -60 0 -13 25 -13 27 6 45 19 20 29 20 48 0z"/>
<path d="M1051 122 c-1 -50 0 -53 22 -50 18 2 22 9 22 42 0 26 -5 41 -15 43
-12 4 -13 3 -1 -5 7 -5 10 -15 7 -21 -12 -19 -25 -12 -29 17 -2 15 -5 3 -6
-26z m39 -27 c0 -8 -7 -15 -15 -15 -8 0 -15 7 -15 15 0 8 7 15 15 15 8 0 15
-7 15 -15z"/>
<path d="M1440 120 l0 -50 33 1 c30 2 30 2 5 6 -34 5 -37 30 -5 36 22 4 22 4
-2 6 -20 1 -22 5 -17 26 4 14 2 25 -4 25 -5 0 -10 -22 -10 -50z"/>
<path d="M1577 163 c-4 -3 -7 -26 -7 -50 0 -39 2 -43 24 -43 31 0 48 22 44 57
-2 19 -9 29 -23 31 -18 2 -18 2 -2 -8 21 -14 22 -56 1 -64 -31 -12 -36 -6 -32
39 2 25 3 45 2 45 0 0 -4 -3 -7 -7z"/>
<path d="M1810 150 c-24 -24 -25 -43 -4 -65 23 -22 58 -15 62 13 3 16 -1 22
-15 21 -10 0 -13 -3 -5 -6 19 -7 14 -33 -6 -33 -21 0 -42 18 -42 36 0 20 31
46 47 40 8 -3 11 -1 8 4 -9 15 -23 12 -45 -10z"/>
<path d="M1998 151 c25 -24 28 -41 10 -59 -34 -34 -79 8 -51 48 11 16 12 21 3
18 -24 -8 -30 -45 -11 -69 23 -29 68 -20 77 16 7 28 1 41 -29 56 l-22 11 23
-21z"/>
<path d="M2110 150 c-11 -11 -20 -26 -20 -34 0 -20 28 -46 49 -46 20 0 51 30
51 48 0 15 -36 52 -50 52 -5 0 -19 -9 -30 -20z m54 -6 c19 -18 19 -20 6 -45
-12 -21 -40 -25 -58 -7 -16 16 -15 33 4 52 19 20 29 20 48 0z"/>
<path d="M2263 163 c-8 -3 -13 -22 -13 -49 0 -40 2 -44 24 -44 44 0 74 53 44
77 -19 14 -41 21 -55 16z m52 -35 c8 -23 -11 -48 -36 -48 -15 0 -19 7 -19 33
0 19 3 36 6 39 11 11 43 -5 49 -24z"/>
<path d="M362 115 c0 -27 3 -40 5 -27 3 17 11 22 33 22 22 0 30 -5 33 -22 2
-13 5 0 5 27 1 39 -1 45 -8 28 -6 -14 -18 -23 -30 -23 -12 0 -24 9 -30 23 -7
17 -9 11 -8 -28z"/>
<path d="M732 133 l-21 -28 -20 25 -21 25 0 -30 c0 -21 3 -26 9 -16 7 11 11
10 20 -5 10 -18 12 -18 30 6 l19 24 5 -34 c3 -30 4 -28 5 13 1 26 1 47 -1 47
-2 0 -13 -12 -25 -27z"/>
<path d="M830 115 c0 -44 0 -45 33 -44 30 2 30 2 5 6 -16 2 -28 11 -28 19 0 8
11 14 28 15 l27 1 -25 7 c-15 4 -24 14 -24 24 1 9 -2 17 -7 17 -5 0 -9 -20 -9
-45z"/>
<path d="M1198 154 c-3 -5 -13 -27 -22 -49 -17 -39 -16 -39 2 -20 11 11 17 25
15 31 -2 7 0 15 6 19 6 3 11 -2 11 -12 0 -11 7 -28 15 -39 19 -25 18 -8 -4 40
-10 22 -20 36 -23 30z"/>
<path d="M1313 115 c0 -29 2 -38 4 -21 l5 29 25 -29 24 -29 -17 32 c-15 28
-16 34 -3 50 13 17 13 17 -8 0 -21 -18 -21 -18 -26 0 -3 10 -5 -4 -4 -32z"/>
<path d="M2400 141 c0 -11 9 -23 20 -26 26 -8 25 -23 -2 -35 l-23 -9 23 0 c33
-1 40 28 12 49 -13 10 -20 22 -16 29 4 6 2 11 -3 11 -6 0 -11 -9 -11 -19z"/>
</g>
</svg>
